<mxfile host="app.diagrams.net" agent="Mozilla/5.0 (X11; Linux x86_64; rv:132.0) Gecko/20100101 Firefox/132.0" version="24.8.6">
  <diagram name="Page-1" id="n4sZT0pgIIy9X5DbZuJ9">
    <mxGraphModel dx="2049" dy="-86" grid="1" gridSize="10" guides="1" tooltips="1" connect="1" arrows="1" fold="1" page="1" pageScale="1" pageWidth="850" pageHeight="1100" math="0" shadow="0">
      <root>
        <mxCell id="0" />
        <mxCell id="1" parent="0" />
        <mxCell id="2qocw8Wk0aR5SX-Csv46-140" value="&lt;font style=&quot;font-size: 16px;&quot; data-font-src=&quot;https://fonts.googleapis.com/css?family=Ubuntu&quot; face=&quot;Ubuntu&quot;&gt;Aphrodite.Domain&lt;/font&gt;" style="rounded=1;whiteSpace=wrap;html=1;" parent="1" vertex="1">
          <mxGeometry x="40" y="1440" width="160" height="80" as="geometry" />
        </mxCell>
        <mxCell id="2qocw8Wk0aR5SX-Csv46-145" style="edgeStyle=orthogonalEdgeStyle;rounded=1;orthogonalLoop=1;jettySize=auto;html=1;entryX=1;entryY=0.5;entryDx=0;entryDy=0;curved=0;" parent="1" source="2qocw8Wk0aR5SX-Csv46-141" target="2qocw8Wk0aR5SX-Csv46-142" edge="1">
          <mxGeometry relative="1" as="geometry">
            <Array as="points">
              <mxPoint x="600" y="1640" />
            </Array>
          </mxGeometry>
        </mxCell>
        <mxCell id="2qocw8Wk0aR5SX-Csv46-148" style="edgeStyle=orthogonalEdgeStyle;rounded=0;orthogonalLoop=1;jettySize=auto;html=1;entryX=1;entryY=0.5;entryDx=0;entryDy=0;" parent="1" source="2qocw8Wk0aR5SX-Csv46-141" target="2qocw8Wk0aR5SX-Csv46-140" edge="1">
          <mxGeometry relative="1" as="geometry" />
        </mxCell>
        <mxCell id="2qocw8Wk0aR5SX-Csv46-141" value="&lt;div&gt;&lt;font style=&quot;font-size: 16px;&quot; data-font-src=&quot;https://fonts.googleapis.com/css?family=Ubuntu&quot; face=&quot;Ubuntu&quot;&gt;Aphrodite.Service&lt;/font&gt;&lt;/div&gt;" style="rounded=1;whiteSpace=wrap;html=1;" parent="1" vertex="1">
          <mxGeometry x="520" y="1440" width="160" height="80" as="geometry" />
        </mxCell>
        <mxCell id="2qocw8Wk0aR5SX-Csv46-147" style="edgeStyle=orthogonalEdgeStyle;rounded=1;orthogonalLoop=1;jettySize=auto;html=1;entryX=0.5;entryY=1;entryDx=0;entryDy=0;curved=0;" parent="1" source="2qocw8Wk0aR5SX-Csv46-142" target="2qocw8Wk0aR5SX-Csv46-140" edge="1">
          <mxGeometry relative="1" as="geometry" />
        </mxCell>
        <mxCell id="2qocw8Wk0aR5SX-Csv46-142" value="&lt;font style=&quot;font-size: 16px;&quot; data-font-src=&quot;https://fonts.googleapis.com/css?family=Ubuntu&quot; face=&quot;Ubuntu&quot;&gt;Aphrodite.Infra&lt;/font&gt;" style="rounded=1;whiteSpace=wrap;html=1;" parent="1" vertex="1">
          <mxGeometry x="280" y="1600" width="160" height="80" as="geometry" />
        </mxCell>
        <mxCell id="2qocw8Wk0aR5SX-Csv46-144" style="edgeStyle=orthogonalEdgeStyle;rounded=1;orthogonalLoop=1;jettySize=auto;html=1;entryX=0.5;entryY=0;entryDx=0;entryDy=0;curved=0;" parent="1" source="2qocw8Wk0aR5SX-Csv46-143" target="2qocw8Wk0aR5SX-Csv46-141" edge="1">
          <mxGeometry relative="1" as="geometry" />
        </mxCell>
        <mxCell id="2qocw8Wk0aR5SX-Csv46-146" style="edgeStyle=orthogonalEdgeStyle;rounded=1;orthogonalLoop=1;jettySize=auto;html=1;entryX=0.5;entryY=0;entryDx=0;entryDy=0;curved=0;" parent="1" source="2qocw8Wk0aR5SX-Csv46-143" target="2qocw8Wk0aR5SX-Csv46-140" edge="1">
          <mxGeometry relative="1" as="geometry" />
        </mxCell>
        <mxCell id="2qocw8Wk0aR5SX-Csv46-143" value="&lt;font style=&quot;font-size: 16px;&quot; data-font-src=&quot;https://fonts.googleapis.com/css?family=Ubuntu&quot; face=&quot;Ubuntu&quot;&gt;Aphrodite.Api&lt;/font&gt;" style="rounded=1;whiteSpace=wrap;html=1;" parent="1" vertex="1">
          <mxGeometry x="280" y="1280" width="160" height="80" as="geometry" />
        </mxCell>
      </root>
    </mxGraphModel>
  </diagram>
</mxfile>
